<?xml version="1.0" standalone="no"?><!DOCTYPE svg PUBLIC "-//W3C//DTD SVG 1.1//EN" "http://www.w3.org/Graphics/SVG/1.1/DTD/svg11.dtd"><svg t="1595232924791" class="icon" viewBox="0 0 1024 1024" version="1.1" xmlns="http://www.w3.org/2000/svg" p-id="4253" xmlns:xlink="http://www.w3.org/1999/xlink" width="200" height="200"><defs><style type="text/css"></style></defs><path d="M760.03 250.46c-9.92-9.94-23.03-15.34-37.69-15.42-4.92 0.05-9.76 0.79-14.4 2.17l-12.72 7.21c-2.94 1.86-15.91 11.29-18.43 13.68-54.17 51.36-165.45 172.68-185.89 318.73-19.75 141.11 80.65 275.78 223.04 280.78 133.26 4.7 243.16-102.35 243.16-234.57 0-171.35-137.3-317.22-197.07-372.58z m-37.67 541.61c-93.21 0-169.03-75.82-169.03-169.03 0-130.59 102.33-250.64 154.2-303.08l16.03-13.59C772.49 353.4 891.4 482.25 891.4 623.04c0 93.21-75.83 169.03-169.04 169.03z" fill="#666666" p-id="4254"></path><path d="M533.38 826.4c-43.38 32.21-94.86 49.23-148.85 49.23-138.8 0-251.73-114.15-251.73-254.44 0-200.1 161.37-381.88 231.55-451.42l21.17-18.82c28.57 26.88 81.28 80.15 130.99 150 10.53 14.77 31.02 18.22 45.81 7.72 14.79-10.52 18.24-31.03 7.72-45.81-54.62-76.73-112.61-134.68-140.77-160.85-11.54-12.29-27.1-18.79-44.63-19.08a60.3 60.3 0 0 0-23.98 5.25l-10.17 6.49-17.07 13.6C252.98 184.14 67.1 384.99 67.1 621.18c0 176.53 142.4 320.14 317.42 320.14 68.21 0 133.23-21.5 188.01-62.17 14.56-10.82 17.61-31.39 6.8-45.96-10.83-14.57-31.42-17.6-45.95-6.79zM762.06 667.51c-28.33-0.15-48.59-7.42-60.22-21.6-17.54-21.35-15.32-57.36-12.99-69.43 3.53-17.72-7.92-34.98-25.64-38.6-17.77-3.66-35.13 7.83-38.76 25.61-1.53 7.46-13.76 74.38 26.22 123.62 24.6 30.32 61.96 45.83 111.03 46.1h0.18c18.06 0 32.75-14.58 32.85-32.67 0.1-18.14-14.53-32.93-32.67-33.03z" fill="#666666" p-id="4255"></path><path d="M244.05 519.57c-17.15-5.9-35.86 3.24-41.73 20.39-1.6 4.65-38.5 114.94 19.47 198.25 37.44 53.81 103.5 82.22 196.36 84.45 0.27 0.01 0.53 0.01 0.8 0.01 17.78 0 32.4-14.19 32.83-32.06 0.44-18.13-13.91-33.19-32.05-33.63-70.59-1.7-118.99-20.56-143.84-56.05-39.01-55.69-11.73-138.79-11.42-139.72 5.83-17.13-3.29-35.76-20.42-41.64z" fill="#666666" p-id="4256"></path></svg>