<?xml version="1.0" standalone="no"?><!DOCTYPE svg PUBLIC "-//W3C//DTD SVG 1.1//EN" "http://www.w3.org/Graphics/SVG/1.1/DTD/svg11.dtd"><svg t="1595232911163" class="icon" viewBox="0 0 1024 1024" version="1.1" xmlns="http://www.w3.org/2000/svg" p-id="4118" xmlns:xlink="http://www.w3.org/1999/xlink" width="200" height="200"><defs><style type="text/css"></style></defs><path d="M706.23 441.2v-12.76h87c16.21 0 29.35-13.14 29.35-29.35s-13.14-29.35-29.35-29.35h-87V337.3h87c16.21 0 29.35-13.14 29.35-29.35s-13.14-29.35-29.35-29.35h-87v-32.43h87c16.21 0 29.35-13.14 29.35-29.35s-13.14-29.35-29.35-29.35h-87.95C695.79 89.21 612.8 12.13 512.1 12.13c-107.04 0-194.13 87.08-194.13 194.12v234.88c-78.35 60.31-124.68 153.46-124.68 252.21 0 175.78 143.01 318.79 318.8 318.79s318.8-143.01 318.8-318.79c0.01-98.78-46.32-191.9-124.66-252.14zM512.1 953.42c-143.42 0-260.1-116.68-260.1-260.09 0-85.98 40.85-163.7 112.08-213.24l12.59-8.76V206.25c0-74.67 60.75-135.42 135.43-135.42s135.43 60.75 135.43 135.42v265.2l12.61 8.75c71.22 49.45 112.06 127.13 112.06 213.13 0 143.42-116.68 260.09-260.1 260.09z" fill="#666666" p-id="4119"></path><path d="M541.45 536.57V177.3c0-16.21-13.14-29.35-29.35-29.35s-29.35 13.14-29.35 29.35v359.26c-75.56 13.87-133.04 80.09-133.04 159.6 0 89.54 72.84 162.38 162.39 162.38s162.39-72.84 162.39-162.38c0-79.5-57.48-145.72-133.04-159.59zM512.1 799.85c-57.17 0-103.69-46.51-103.69-103.68 0-57.17 46.51-103.69 103.69-103.69S615.78 639 615.78 696.17c0 57.16-46.51 103.68-103.68 103.68z" fill="#666666" p-id="4120"></path></svg>